<svg version="1.0" xmlns="http://www.w3.org/2000/svg" height="450" width="600">
<rect width="600" height="450" fill="none" stroke="black" stroke-width="5"/>
<path d="M172.0791015625 114.75723266601562 C172.0791015625 114.75723266601562 172.0791015625 115.09182739257812 172.0791015625 116.43051147460938 172.0791015625 121.78494262695312 171.76206970214844 131.82449340820312 171.60354614257812 144.54141235351562 171.76206970214844 156.25430297851562 171.76206970214844 168.97116088867188 171.76206970214844 181.68795776367188 171.92059326171875 194.40481567382812 171.76206970214844 209.12960815429688 172.2376251220703 224.85836791992188 172.39614868164062 240.58712768554688 172.39614868164062 258.9930725097656 171.92059326171875 276.0604553222656 171.76206970214844 292.4585266113281 171.4450225830078 306.5139465332031 170.96946716308594 317.8922424316406 170.65243530273438 328.2665100097656 171.1279754638672 338.3061218261719 170.65243530273438 347.0071105957031 171.1279754638672 353.3656311035156 171.1279754638672 357.7159729003906 171.1279754638672 360.3933410644531 170.96946716308594 363.4051818847656 170.96946716308594 365.4130554199219 170.96946716308594 365.4130554199219"
style="fill:none;stroke:black;stroke-width:10" />
<path d="M168.90869140625 130.48599243164062 C168.90869140625 130.48599243164062 169.22573852539062 130.15121459960938 170.17686462402344 130.15121459960938 171.28651428222656 130.15121459960938 173.0302276611328 129.81661987304688 182.85848999023438 128.47799682617188 194.9060516357422 127.13937377929688 206.3195037841797 125.13143920898438 219.31817626953125 123.45822143554688 235.6457977294922 121.45028686523438 251.02224731445312 120.44631958007812 267.6668701171875 120.11160278320312 283.9944763183594 119.77700805664062 300.1635437011719 119.77700805664062 316.1741027832031 120.11160278320312 328.3801574707031 121.11563110351562 337.5743408203125 122.11959838867188 345.5003662109375 123.79281616210938 350.7315368652344 124.46218872070312 353.9019470214844 125.46609497070312 355.0115966796875 126.80471801757812 355.8041687011719 128.14340209960938 356.1212158203125 131.15524291992188 356.75531005859375 135.50570678710938 357.86492919921875 142.19888305664062 359.1330871582031 150.23049926757812 360.2427673339844 159.26614379882812 361.03533935546875 168.30184936523438 361.51092529296875 178.67611694335938 362.6205749511719 189.38504028320312 363.254638671875 202.10189819335938 364.0472412109375 213.81478881835938 364.0472412109375 226.19692993164062 364.83984375 238.24453735351562 365.4739074707031 249.62271118164062 365.6324462890625 260.3316955566406 366.9006042480469 273.7178649902344 367.2176513671875 278.4029846191406 367.6932067871094 287.1039733886719 368.0102233886719 295.4703674316406 368.3273010253906 303.1674499511719 368.6443176269531 310.1951599121094 369.1199035644531 316.5536193847656 369.75396728515625 322.5773010253906 370.2295227050781 328.6011047363281 370.54656982421875 333.2862854003906 370.8636169433594 337.6367492675781 371.1806335449219 341.6527404785156 371.33917236328125 345.3338317871094 371.33917236328125 349.0149841308594 371.1806335449219 351.3576354980469 371.02215576171875 352.3615417480469 370.705078125 352.3615417480469 370.3880615234375 352.3615417480469 370.0710144042969 351.3576354980469 368.0102233886719 349.3496398925781 362.4620361328125 343.6605529785156 352.79229736328125 333.9555358886719 343.4396057128906 324.2505798339844 336.94024658203125 318.8961486816406 336.94024658203125 318.8961486816406"
style="fill:none;stroke:black;stroke-width:10" />
<path d="M267.9839172363281 130.48599243164062 C267.9839172363281 130.48599243164062 266.3987121582031 129.81661987304688 265.92315673828125 129.48196411132812 265.2890625 128.81271362304688 264.65496826171875 128.47799682617188 264.1794128417969 128.14340209960938 264.0209045410156 127.80868530273438 263.7038879394531 128.14340209960938 263.54534912109375 129.14730834960938 263.54534912109375 130.48599243164062 263.2283020019531 138.85226440429688 262.9112548828125 147.55325317382812 263.2283020019531 155.91958618164062 263.2283020019531 165.62460327148438 264.1794128417969 177.00283813476562 265.2890625 186.37313842773438 266.3987121582031 194.40481567382812 267.50836181640625 201.76724243164062 268.30096435546875 209.46426391601562 268.61798095703125 216.49203491210938 268.30096435546875 222.85043334960938 267.6668701171875 227.87020874023438 265.4476013183594 233.55935668945312 265.4476013183594 233.55935668945312"
style="fill:none;stroke:black;stroke-width:10" />
<path d="M175.09100341796875 247.94949340820312 C175.09100341796875 247.94949340820312 174.93246459960938 247.28018188476562 174.93246459960938 246.94552612304688 175.09100341796875 246.61087036132812 175.4080352783203 246.27621459960938 176.0421142578125 246.27621459960938 176.35916137695312 245.94155883789062 177.78582763671875 245.60690307617188 186.02890014648438 243.93368530273438 196.80828857421875 241.92568969726562 207.1121063232422 240.25241088867188 218.5255584716797 238.91384887695312 232.3168487548828 237.57522583007812 245.156982421875 236.23660278320312 257.20452880859375 235.23263549804688 270.2032165527344 234.22866821289062 282.2507629394531 232.89004516601562 292.39605712890625 231.55142211914062 302.22430419921875 230.54751586914062 311.73553466796875 229.54348754882812 320.6126708984375 229.87820434570312 327.11199951171875 229.87820434570312 332.8187255859375 229.54348754882812 337.4158020019531 229.20889282226562 342.96405029296875 229.20889282226562 348.82928466796875 229.20889282226562 353.58489990234375 230.21279907226562 353.58489990234375 230.21279907226562"
style="fill:none;stroke:black;stroke-width:10" />
</svg>