<svg version="1.0" xmlns="http://www.w3.org/2000/svg" height="450" width="600">
<rect width="600" height="450" fill="none" stroke="black" stroke-width="5"/>
<path d="M194.43048095703125 99.11257934570312 C194.43048095703125 99.11257934570312 194.58900451660156 100.11648559570312 194.7475128173828 100.45108032226562 194.9060516357422 101.12039184570312 194.9060516357422 101.45510864257812 196.17420959472656 101.78970336914062 197.28382873535156 101.78970336914062 198.7105255126953 101.78970336914062 205.68544006347656 101.45510864257812 215.19664001464844 101.12039184570312 226.61012268066406 100.11648559570312 238.97470092773438 99.11257934570312 252.2904052734375 97.10458374023438 267.6668701171875 96.43527221679688 281.9336853027344 95.76596069335938 296.0420227050781 94.76199340820312 308.7236328125 94.09268188476562 317.7593078613281 94.42739868164062 323.14898681640625 94.09268188476562 325.52679443359375 93.75802612304688 326.6364440917969 94.09268188476562 326.7949523925781 94.76199340820312 327.7460632324219 95.76596069335938 327.7460632324219 95.76596069335938"
style="fill:none;stroke:black;stroke-width:10" />
<path d="M260.37493896484375 111.82937622070312 C260.37493896484375 111.82937622070312 260.5334777832031 111.82937622070312 260.8504943847656 111.16000366210938 261.009033203125 110.82546997070312 261.16754150390625 110.49069213867188 261.3260498046875 110.15609741210938 261.4845886230469 110.15609741210938 261.16754150390625 111.49472045898438 260.8504943847656 112.83328247070312 258.78973388671875 121.53433227539062 256.0948791503906 129.56607055664062 252.92446899414062 137.59774780273438 249.43704223632812 145.62936401367188 244.99847412109375 156.00375366210938 240.4013671875 167.38192749023438 234.3776092529297 180.09878540039062 228.98793029785156 194.48892211914062 223.43971252441406 208.87899780273438 218.20852661132812 222.59988403320312 212.34329223632812 235.65133666992188 205.5269012451172 250.04147338867188 195.85714721679688 265.1008605957031 189.51634216308594 273.8019104003906 189.51634216308594 273.8019104003906"
style="fill:none;stroke:black;stroke-width:10" />
<path d="M176.2006378173828 205.86715698242188 C176.2006378173828 205.86715698242188 175.72508239746094 206.20181274414062 175.4080352783203 206.20181274414062 176.35916137695312 206.53640747070312 177.94436645507812 205.86715698242188 188.24818420410156 204.52853393554688 199.50311279296875 202.18594360351562 211.23365783691406 200.51266479492188 226.45156860351562 199.17410278320312 242.14511108398438 197.16610717773438 257.8386535644531 195.15823364257812 272.58099365234375 192.81564331054688 283.8359375 191.47702026367188 291.4449157714844 190.80770874023438 295.56646728515625 191.47702026367188 297.6272277832031 191.81167602539062 298.73687744140625 192.81564331054688 299.3709411621094 195.49282836914062 300.4805908203125 201.85128784179688 300.7976379394531 210.55227661132812 301.273193359375 220.59188842773438 301.9072570800781 231.63546752929688 301.7487487792969 242.34439086914062 301.1146545410156 251.38009643554688 300.3220520019531 257.0692443847656 299.52947998046875 261.4197082519531 298.26129150390625 265.7701721191406 298.26129150390625 265.7701721191406"
style="fill:none;stroke:black;stroke-width:10" />
<path d="M136.09500122070312 283.1722717285156 C136.09500122070312 283.1722717285156 136.72906494140625 283.1722717285156 137.68020629882812 282.8376159667969 138.94834899902344 282.5028991699219 143.06988525390625 281.4989318847656 151.62997436523438 279.4911193847656 161.14120483398438 277.4830627441406 170.96946716308594 276.1445007324219 183.0170135498047 275.4751892089844 196.33270263671875 273.8019104003906 209.64842224121094 272.1286315917969 227.2441864013672 270.7900085449219 247.21775817871094 268.4474792480469 268.30096435546875 266.4395446777344 285.8966979980469 265.4355773925781 302.3828125 265.4355773925781 319.820068359375 266.1048889160156 334.7209777832031 266.4395446777344 349.4633483886719 268.7821350097656 362.7790832519531 271.4593200683594 369.595458984375 273.8019104003906 369.595458984375 273.8019104003906"
style="fill:none;stroke:black;stroke-width:10" />
</svg>