<svg version="1.0" xmlns="http://www.w3.org/2000/svg" height="450" width="600">
<rect width="600" height="450" fill="none" stroke="black" stroke-width="5"/>
<path d="M199.82017517089844 217.49600219726562 C199.82017517089844 217.49600219726562 200.7712860107422 216.49203491210938 201.40536499023438 215.82272338867188 201.8809356689453 215.15341186523438 202.19798278808594 214.81875610351562 202.51499938964844 214.48403930664062 203.1490936279297 214.14944458007812 203.46615600585938 214.14944458007812 203.9416961669922 214.14944458007812 204.1002197265625 214.48403930664062 204.1002197265625 214.81875610351562 203.9416961669922 215.82272338867188 203.62464904785156 216.82662963867188 200.9298095703125 222.51577758789062 198.7105255126953 227.87020874023438 195.85714721679688 232.55538940429688 193.16232299804688 237.24057006835938 190.9430389404297 241.59109497070312 187.93113708496094 245.94155883789062 185.3948211669922 250.96139526367188 182.54144287109375 256.6504821777344 179.2125244140625 262.6742858886719 175.24951171875 269.3673400878906 169.8598175048828 277.0643615722656 162.40936279296875 286.4347229003906 151.947021484375 298.4822692871094 141.00912475585938 309.5258483886719 128.48602294921875 323.2466735839844 128.48602294921875 323.2466735839844"
style="fill:none;stroke:black;stroke-width:10" />
<path d="M302.3828125 199.42465209960938 C302.3828125 199.42465209960938 301.43170166015625 199.75930786132812 300.7976379394531 200.09396362304688 300.63909912109375 200.42861938476562 300.3220520019531 200.76327514648438 299.84649658203125 201.09793090820312 299.6879577636719 201.76724243164062 299.52947998046875 202.10189819335938 299.84649658203125 203.44052124023438 301.7487487792969 209.79891967773438 304.60211181640625 216.15731811523438 309.9917907714844 225.19302368164062 315.6985168457031 233.89401245117188 322.6734313964844 241.59109497070312 329.1727600097656 251.96530151367188 335.35504150390625 262.0049743652344 343.4396057128906 272.0445861816406 352.3167419433594 282.0841979980469 361.9864807128906 293.1278381347656 370.3880615234375 303.8367004394531 377.67999267578125 314.2109680175781 382.5941162109375 320.2347717285156 382.5941162109375 320.2347717285156"
style="fill:none;stroke:black;stroke-width:10" />
</svg>