<svg version="1.0" xmlns="http://www.w3.org/2000/svg" height="450" width="600">
<rect width="600" height="450" fill="none" stroke="black" stroke-width="5"/>
<path d="M181.90736389160156 95.01254272460938 C181.90736389160156 95.01254272460938 181.7488555908203 94.67794799804688 181.7488555908203 94.34329223632812 182.06588745117188 94.00863647460938 182.2244110107422 94.00863647460938 183.49256896972656 93.67404174804688 189.99191284179688 92.33535766601562 199.1860809326172 90.99673461914062 208.85585021972656 90.32742309570312 221.53746032714844 89.32351684570312 236.43836975097656 87.31552124023438 251.1807861328125 85.64224243164062 267.03277587890625 83.29965209960938 281.6166687011719 81.96115112304688 293.6642150878906 80.62246704101562 306.3458251953125 79.28384399414062 320.1370849609375 77.27597045898438 332.5016784667969 75.93734741210938 343.9151611328125 74.59872436523438 352.6337585449219 73.26004028320312 356.75531005859375 73.92935180664062 356.75531005859375 73.92935180664062"
style="fill:none;stroke:black;stroke-width:10" />
<path d="M288.43304443359375 82.29574584960938 C288.43304443359375 82.29574584960938 288.9085998535156 82.63040161132812 288.9085998535156 82.96505737304688 289.067138671875 83.29965209960938 289.067138671875 83.63442993164062 289.22564697265625 83.96902465820312 289.22564697265625 84.63833618164062 289.22564697265625 84.97293090820312 287.64044189453125 89.65811157226562 285.26263427734375 97.35513305664062 281.2996520996094 106.39083862304688 276.0684509277344 116.09579467773438 270.3616943359375 124.79678344726562 264.8135070800781 133.16317749023438 258.6312255859375 141.52951049804688 252.60745239257812 148.55722045898438 250.22964477539062 152.23843383789062 250.22964477539062 152.23843383789062"
style="fill:none;stroke:black;stroke-width:10" />
<path d="M190.9430389404297 159.60086059570312 C190.9430389404297 159.60086059570312 192.05267333984375 159.93545532226562 192.8452606201172 159.93545532226562 193.16232299804688 160.27017211914062 193.32083129882812 160.93942260742188 194.11341857910156 165.95925903320312 194.9060516357422 173.32162475585938 196.49124145507812 183.36123657226562 197.44236755371094 194.07015991210938 197.75941467285156 204.10983276367188 197.91795349121094 213.81478881835938 197.60089111328125 223.85440063476562 196.64976501464844 234.89797973632812 196.80828857421875 248.61880493164062 198.07643127441406 267.0247497558594 198.55198669433594 286.4347229003906 198.86904907226562 297.4782409667969 199.66165161132812 302.1634216308594 199.82017517089844 305.1753234863281 199.97869873046875 305.8446960449219 199.97869873046875 305.8446960449219"
style="fill:none;stroke:black;stroke-width:10" />
<path d="M192.05267333984375 173.99093627929688 C192.05267333984375 173.99093627929688 192.68675231933594 173.99093627929688 193.32083129882812 173.65634155273438 193.6378631591797 173.65634155273438 194.27195739746094 173.65634155273438 195.22308349609375 173.65634155273438 196.49124145507812 173.32162475585938 203.1490936279297 171.64834594726562 210.4410400390625 169.97506713867188 226.92713928222656 166.62857055664062 247.5347900390625 161.60873413085938 272.58099365234375 155.91958618164062 293.18865966796875 152.23843383789062 314.5888977050781 149.56118774414062 331.2335205078125 149.56118774414062 339.31805419921875 150.23049926757812 342.17144775390625 151.56912231445312 343.9151611328125 154.91567993164062 344.8663024902344 160.60476684570312 345.65887451171875 171.64834594726562 345.0247802734375 185.70382690429688 344.3907165527344 203.77517700195312 342.8055114746094 221.51181030273438 341.69586181640625 235.90194702148438 340.90325927734375 249.28811645507812 339.6351013183594 261.0010070800781 338.6839599609375 269.7019958496094 337.5743408203125 276.7297668457031 336.78173828125 282.0841979980469 335.5135803222656 288.4426574707031 335.5135803222656 293.4624328613281 335.5135803222656 293.4624328613281"
style="fill:none;stroke:black;stroke-width:10" />
<path d="M203.62464904785156 234.56332397460938 C203.62464904785156 234.56332397460938 203.46615600585938 234.22866821289062 203.46615600585938 233.89401245117188 204.1002197265625 233.55935668945312 205.0513458251953 233.55935668945312 209.4899139404297 233.89401245117188 217.41592407226562 233.89401245117188 230.57310485839844 232.89004516601562 246.5836944580078 231.21676635742188 264.9720458984375 229.87820434570312 283.0433349609375 227.87020874023438 299.84649658203125 225.86233520507812 314.7474060058594 224.18905639648438 326.6364440917969 223.85440063476562 334.4039306640625 223.85440063476562 337.2572937011719 223.51974487304688 337.2572937011719 223.51974487304688"
style="fill:none;stroke:black;stroke-width:10" />
<path d="M196.17420959472656 309.8605041503906 C196.17420959472656 309.8605041503906 196.17420959472656 310.5297546386719 197.60089111328125 309.8605041503906 199.02757263183594 309.1911315917969 204.1002197265625 307.8526306152344 211.70919799804688 306.1793518066406 221.8544921875 304.5059509277344 235.6457977294922 303.1674499511719 251.33926391601562 301.8287658691406 268.1424255371094 299.4862365722656 285.26263427734375 297.4782409667969 303.3339538574219 295.1357116699219 320.77117919921875 293.1278381347656 335.83062744140625 291.1197814941406 346.9270324707031 289.7812805175781 354.37750244140625 287.7732849121094 354.37750244140625 287.7732849121094"
style="fill:none;stroke:black;stroke-width:10" />
</svg>