<svg version="1.0" xmlns="http://www.w3.org/2000/svg" height="450" width="600">
<rect width="600" height="450" fill="none" stroke="black" stroke-width="5"/>
<path d="M427.6138916015625 199.65518188476562 C427.6138916015625 199.65518188476562 427.4553527832031 199.32052612304688 427.4553527832031 198.98587036132812 426.9798278808594 198.31661987304688 426.5042419433594 198.31661987304688 424.7605285644531 198.31661987304688 413.5056457519531 197.98190307617188 401.2995300292969 197.31259155273438 388.30084228515625 196.97799682617188 374.0340270996094 196.97799682617188 358.65753173828125 197.64730834960938 339.6351013183594 196.97799682617188 315.5400085449219 196.97799682617188 289.54266357421875 197.31259155273438 267.3498229980469 197.64730834960938 245.47402954101562 197.31259155273438 224.0737762451172 196.30868530273438 202.19798278808594 196.97799682617188 183.0170135498047 196.64328002929688 167.00645446777344 196.64328002929688 152.5811004638672 197.31259155273438 142.27728271484375 197.98190307617188 135.1438751220703 198.98587036132812 130.229736328125 199.65518188476562 127.21784973144531 199.32052612304688 123.41336059570312 199.32052612304688 120.24295043945312 198.98587036132812 116.91403198242188 198.98587036132812 116.12142181396484 198.98587036132812 115.48735046386719 198.98587036132812 114.21918487548828 198.98587036132812 114.21918487548828 198.98587036132812"
style="fill:none;stroke:black;stroke-width:10" />
</svg>