<svg version="1.0" xmlns="http://www.w3.org/2000/svg" height="450" width="600">
<rect width="600" height="450" fill="none" stroke="black" stroke-width="5"/>
<path d="M113.5851058959961 115.42648315429688 C113.5851058959961 115.42648315429688 113.10954284667969 114.42251586914062 112.79249572753906 113.41854858398438 112.31694030761719 112.74929809570312 112.1584243774414 112.41464233398438 111.84137725830078 112.07992553710938 111.52434539794922 112.74929809570312 111.2072982788086 114.08792114257812 109.78060913085938 120.44631958007812 108.67096710205078 133.16317749023438 107.56132507324219 145.54537963867188 107.08577728271484 159.26614379882812 106.92724609375 175.32955932617188 106.4516830444336 192.06228637695312 106.4516830444336 210.80288696289062 106.61021423339844 229.87820434570312 105.342041015625 252.96926879882812 104.2323989868164 278.7376403808594 104.39093017578125 302.4981384277344 104.86649322509766 321.5733947753906 104.39093017578125 337.3020935058594 104.70796203613281 347.6763610839844 104.2323989868164 353.0309143066406 104.07388305664062 355.0387878417969 105.97613525390625 355.7081604003906 108.9880142211914 355.7081604003906 108.9880142211914 355.7081604003906"
style="fill:none;stroke:black;stroke-width:10" />
<path d="M101.6960678100586 120.44631958007812 C101.6960678100586 120.44631958007812 101.53756713867188 120.11160278320312 101.06200408935547 119.44235229492188 100.58642578125 118.43832397460938 100.42792510986328 117.43441772460938 100.11087799072266 116.76510620117188 100.11087799072266 116.09579467773438 100.11087799072266 115.42648315429688 100.74495697021484 115.09182739257812 105.02499389648438 114.08792114257812 112.95101928710938 112.74929809570312 122.93780517578125 111.41061401367188 136.09500122070312 108.73342895507812 150.9958953857422 106.72543334960938 165.73829650878906 105.05221557617188 181.7488555908203 103.04434204101562 197.44236755371094 101.70565795898438 210.12400817871094 101.70565795898438 220.9033660888672 102.04031372070312 228.98793029785156 102.70962524414062 235.0116729736328 104.71762084960938 239.13320922851562 107.06021118164062 242.6206512451172 111.41061401367188 244.99847412109375 116.76510620117188 246.42514038085938 125.46609497070312 246.5836944580078 136.17507934570312 246.74221801757812 147.88796997070312 247.8518524169922 160.27017211914062 248.16888427734375 172.65231323242188 248.327392578125 185.70382690429688 248.802978515625 199.75930786132812 248.327392578125 213.81478881835938 247.21775817871094 228.20492553710938 246.26663208007812 241.92568969726562 244.52293395996094 255.64657592773438 243.41326904296875 269.0326843261719 242.14511108398438 281.4149475097656 240.55990600585938 292.7931823730469 239.76727294921875 302.8327941894531 238.3406219482422 312.2030334472656 237.70654296875 320.5694274902344 236.2798309326172 328.6011047363281 234.69464111328125 334.9595642089844 233.1094207763672 339.3100891113281 232.63388061523438 340.9833068847656 232.63388061523438 340.9833068847656"
style="fill:none;stroke:black;stroke-width:10" />
<path d="M92.34337615966797 222.51577758789062 C92.34337615966797 222.51577758789062 91.23373413085938 221.51181030273438 89.96556854248047 221.51181030273438 88.6974105834961 221.84646606445312 88.38036346435547 221.84646606445312 87.9048080444336 221.84646606445312 88.06332397460938 221.84646606445312 88.53888702392578 222.18112182617188 89.80705261230469 222.18112182617188 97.09899139404297 221.84646606445312 105.97613525390625 221.51181030273438 117.23106384277344 220.17318725585938 128.48602294921875 218.83462524414062 140.69207763671875 218.16531372070312 154.80038452148438 216.49203491210938 166.37237548828125 214.48403930664062 178.10287475585938 213.48013305664062 191.26007080078125 212.47616577148438 202.99057006835938 210.80288696289062 212.81883239746094 210.13357543945312 222.6470947265625 210.13357543945312 231.20721435546875 211.80685424804688 235.6457977294922 213.14547729492188 235.6457977294922 213.14547729492188"
style="fill:none;stroke:black;stroke-width:10" />
<path d="M98.84272003173828 371.4368591308594 C98.84272003173828 371.4368591308594 99.31828308105469 370.4328918457031 99.63531494140625 369.4288635253906 100.11087799072266 368.7596130371094 100.90347290039062 368.0903015136719 102.17164611816406 367.4210510253906 107.2442855834961 364.7438049316406 112.95101928710938 361.7319030761719 120.87702941894531 360.3933410644531 128.96157836914062 358.3853454589844 138.7898406982422 356.3774108886719 150.9958953857422 354.3694152832031 162.8849334716797 352.0268859863281 172.55467224121094 350.0190124511719 183.17552185058594 348.3457336425781 193.6378631591797 347.0071105957031 203.3076171875 347.0071105957031 212.02622985839844 347.0071105957031 220.269287109375 346.6724548339844 227.2441864013672 346.0030822753906 231.36570739746094 346.0030822753906 232.950927734375 346.0030822753906 232.950927734375 346.0030822753906"
style="fill:none;stroke:black;stroke-width:10" />
<path d="M270.3616943359375 114.08792114257812 C270.3616943359375 114.08792114257812 271.6298828125 113.08389282226562 272.4225158691406 112.74929809570312 273.5321350097656 112.07992553710938 277.81219482421875 109.40274047851562 281.9336853027344 107.72946166992188 286.53082275390625 105.38693237304688 292.8716125488281 104.04824829101562 300.63909912109375 103.37893676757812 310.6258850097656 102.70962524414062 322.6734313964844 101.37100219726562 334.8794860839844 100.70175170898438 348.1951904296875 100.03244018554688 362.3034973144531 98.69381713867188 375.4607238769531 98.02450561523438 388.6178894042969 96.68582153320312 400.5069274902344 96.01657104492188 408.11590576171875 95.01254272460938 412.87152099609375 94.34329223632812 415.8833923339844 94.00863647460938 417.9442138671875 94.34329223632812 418.8952941894531 95.01254272460938 418.8952941894531 95.01254272460938"
style="fill:none;stroke:black;stroke-width:10" />
<path d="M353.2678527832031 51.842254638671875 C353.2678527832031 51.842254638671875 353.58489990234375 51.507598876953125 353.2678527832031 51.842254638671875 353.4263610839844 52.176849365234375 353.4263610839844 53.515472412109375 353.4263610839844 55.188751220703125 353.1093444824219 62.216461181640625 353.1093444824219 70.91751098632812 352.79229736328125 80.95712280273438 352.6337585449219 92.33535766601562 352.4752502441406 103.04434204101562 353.9019470214844 113.75320434570312 354.5360107421875 123.79281616210938 355.0115966796875 132.15921020507812 355.17010498046875 139.52157592773438 355.4871520996094 147.21859741210938 355.96270751953125 152.23843383789062 356.4382629394531 155.25027465820312 356.4382629394531 156.92361450195312 355.96270751953125 158.26217651367188 355.96270751953125 158.26217651367188"
style="fill:none;stroke:black;stroke-width:10" />
<path d="M275.5928955078125 181.01864624023438 C275.5928955078125 181.01864624023438 276.54400634765625 179.34536743164062 277.0195617675781 178.67611694335938 277.81219482421875 178.00680541992188 278.7633056640625 177.33749389648438 282.4092712402344 175.99887084960938 288.1159973144531 173.99093627929688 295.09088134765625 172.65231323242188 304.2850646972656 172.31765747070312 317.60076904296875 170.97903442382812 329.9653625488281 169.64047241210938 345.3418273925781 168.97116088867188 361.3523864746094 168.63650512695312 376.7288818359375 168.30184936523438 396.8609619140625 167.29788208007812 413.66412353515625 166.96322631835938 427.13836669921875 167.63247680664062 434.4302673339844 166.96322631835938 438.55181884765625 167.63247680664062 439.3444519042969 167.63247680664062 439.02740478515625 168.30184936523438 439.02740478515625 168.30184936523438"
style="fill:none;stroke:black;stroke-width:10" />
<path d="M264.0209045410156 217.83059692382812 C264.0209045410156 217.83059692382812 264.33795166015625 217.16134643554688 264.8135070800781 217.16134643554688 265.2890625 217.16134643554688 266.874267578125 216.82662963867188 274.0076904296875 214.81875610351562 280.8240661621094 213.81478881835938 289.067138671875 213.14547729492188 300.7976379394531 212.47616577148438 315.3815002441406 212.47616577148438 329.48980712890625 212.47616577148438 344.8663024902344 212.81082153320312 361.1938781738281 212.14151000976562 375.6192321777344 211.80685424804688 391.6297912597656 211.47219848632812 406.2136535644531 211.47219848632812 420.1634521484375 211.13754272460938 432.8450622558594 210.46823120117188 441.8807373046875 209.46426391601562 446.1607666015625 209.79891967773438 447.1119384765625 210.80288696289062 447.1119384765625 210.80288696289062"
style="fill:none;stroke:black;stroke-width:10" />
<path d="M390.6786804199219 176.33352661132812 C390.6786804199219 176.33352661132812 390.9956970214844 175.99887084960938 391.1542053222656 175.66421508789062 391.4712829589844 175.32955932617188 391.9468078613281 175.32955932617188 392.1053466796875 175.32955932617188 392.4223937988281 175.99887084960938 392.7394104003906 177.00283813476562 393.05645751953125 180.01473999023438 394.0075988769531 184.03054809570312 394.4831237792969 187.71176147460938 395.2757263183594 192.39694213867188 396.068359375 197.08212280273438 396.8609619140625 201.76724243164062 397.4950256347656 206.45242309570312 397.9706115722656 210.46823120117188 398.7632141113281 215.15341186523438 398.92169189453125 220.50790405273438 399.2387390136719 226.19692993164062 400.1899108886719 231.88607788085938 400.0313415527344 238.24453735351562 399.71429443359375 244.60293579101562 399.08026123046875 251.63070678710938 398.4461669921875 258.6584167480469 397.8121032714844 265.6861877441406 398.4461669921875 273.3832092285156 398.60467529296875 280.4109191894531 398.60467529296875 287.1039733886719 398.4461669921875 293.4624328613281 398.2876892089844 299.1516418457031 398.12908935546875 304.8407287597656 398.12908935546875 310.8644104003906 398.12908935546875 316.5536193847656 398.2876892089844 321.2387390136719 398.4461669921875 325.9238586425781 398.4461669921875 330.6090393066406 398.4461669921875 333.6209411621094 398.12908935546875 336.6328430175781 397.9706115722656 338.6407165527344 397.653564453125 339.6447448730469 397.1780090332031 340.9833068847656 396.8609619140625 341.9872741699219 396.5439147949219 342.9913024902344 396.2268371582031 343.3258972167969 395.90985107421875 343.9952697753906 395.43426513671875 345.6684265136719 394.9587097167969 347.0071105957031 394.32464599609375 348.6804504394531 394.0075988769531 350.0190124511719 393.84906005859375 351.3576354980469 393.6905212402344 353.0309143066406 393.5320129394531 353.7001647949219 393.2149963378906 355.3734436035156 393.2149963378906 356.0426940917969 393.05645751953125 356.3774108886719 392.8979187011719 357.0467224121094 392.58087158203125 358.0506896972656 391.78826904296875 359.0545959472656 391.312744140625 359.7239685058594 390.5201416015625 358.7200012207031 389.7275390625 357.3813171386719 388.30084228515625 357.0467224121094 386.2401123046875 355.3734436035156 384.3378601074219 353.7001647949219 381.9600524902344 351.0229797363281 377.67999267578125 347.3417053222656 370.705078125 343.6605529785156 362.6205749511719 339.9794006347656 357.54791259765625 338.6407165527344 357.54791259765625 338.6407165527344"
style="fill:none;stroke:black;stroke-width:10" />
<path d="M285.5796813964844 246.27621459960938 C285.5796813964844 246.27621459960938 284.7870788574219 246.94552612304688 284.6285705566406 246.94552612304688 285.1040954589844 247.61483764648438 285.4211730957031 247.94949340820312 285.8966979980469 247.94949340820312 286.6893310546875 248.61880493164062 287.3233947753906 248.95346069335938 290.33526611328125 251.96530151367188 292.39605712890625 254.30789184570312 293.6642150878906 256.6504821777344 295.2493896484375 259.9970397949219 296.9931335449219 263.6781921386719 299.52947998046875 267.6940612792969 303.01690673828125 273.7178649902344 306.8213806152344 281.4149475097656 309.8332824707031 291.4545593261719 309.8332824707031 291.4545593261719"
style="fill:none;stroke:black;stroke-width:10" />
</svg>