<svg version="1.0" xmlns="http://www.w3.org/2000/svg" height="450" width="600">
<rect width="600" height="450" fill="none" stroke="black" stroke-width="5"/>
<path d="M140.21652221679688 228.87423706054688 C140.21652221679688 228.87423706054688 141.16763305664062 228.87423706054688 142.59432983398438 228.20492553710938 149.88626098632812 226.86630249023438 158.76339721679688 225.19302368164062 171.1279754638672 223.51974487304688 187.29705810546875 221.84646606445312 208.53878784179688 219.16921997070312 239.291748046875 217.49600219726562 269.7276306152344 215.48806762695312 297.46868896484375 214.48403930664062 322.0393371582031 212.47616577148438 340.4277038574219 211.13754272460938 355.8041687011719 209.79891967773438 365.1568908691406 208.12564086914062 369.75396728515625 207.79098510742188 370.54656982421875 208.12564086914062 368.0102233886719 209.46426391601562 368.0102233886719 209.46426391601562"
style="fill:none;stroke:black;stroke-width:10" />
<path d="M258.6312255859375 133.49783325195312 C258.6312255859375 133.49783325195312 258.3141784667969 133.49783325195312 258.4726867675781 133.83248901367188 258.4726867675781 134.50180053710938 258.4726867675781 134.83639526367188 258.3141784667969 135.17111206054688 258.3141784667969 135.84042358398438 257.68011474609375 140.19088745117188 256.5704650878906 147.88796997070312 255.4608154296875 158.59689331054688 254.9852294921875 173.99093627929688 254.35116577148438 191.05825805664062 253.55856323242188 213.48013305664062 253.40005493164062 238.91384887695312 253.8756103515625 265.3514709472656 254.03411865234375 284.0920715332031 254.19265747070312 302.8327941894531 253.8756103515625 317.5575256347656 254.19265747070312 329.6051330566406 253.71707153320312 340.3139953613281 254.03411865234375 343.9952697753906 254.19265747070312 345.3338317871094 254.35116577148438 345.6684265136719 254.668212890625 344.9991760253906 254.668212890625 344.9991760253906"
style="fill:none;stroke:black;stroke-width:10" />
</svg>