<svg version="1.0" xmlns="http://www.w3.org/2000/svg" height="450" width="600">
<rect width="600" height="450" fill="none" stroke="black" stroke-width="5"/>
<path d="M219.31817626953125 159.60086059570312 C219.31817626953125 159.60086059570312 219.6352081298828 158.93148803710938 220.1107940673828 158.26217651367188 220.269287109375 158.26217651367188 220.58633422851562 158.26217651367188 220.58633422851562 158.59689331054688 220.58633422851562 159.93545532226562 220.4278106689453 161.27407836914062 219.6352081298828 167.63247680664062 219.4766845703125 173.32162475585938 219.6352081298828 179.01077270507812 219.4766845703125 184.36520385742188 218.68408203125 190.38900756835938 218.04998779296875 195.74343872070312 217.09889221191406 200.42861938476562 216.6233367919922 204.77914428710938 216.14776611328125 209.12960815429688 215.67222595214844 213.48013305664062 214.87960815429688 218.83462524414062 214.0869903564453 223.51974487304688 213.76995849609375 227.20095825195312 213.61141967773438 230.88211059570312 213.29441833496094 234.89797973632812 212.6603240966797 238.24453735351562 211.55067443847656 242.59500122070312 210.59954833984375 248.28414916992188 209.1728515625 254.64254760742188 208.2217559814453 261.0010070800781 207.42913818359375 266.6900939941406 206.3195037841797 272.3792419433594 204.89280700683594 278.0683898925781 202.83206176757812 284.0920715332031 200.13723754882812 291.1197814941406 193.16232299804688 299.1516418457031 186.66297912597656 308.8565368652344 179.37103271484375 319.5655212402344 169.06723022460938 333.2862854003906 157.4952392578125 348.6804504394531 151.78851318359375 356.7120666503906 151.78851318359375 356.7120666503906"
style="fill:none;stroke:black;stroke-width:10" />
<path d="M155.43446350097656 231.21676635742188 C155.43446350097656 231.21676635742188 155.2759552001953 232.89004516601562 155.2759552001953 233.22470092773438 154.9589080810547 233.55935668945312 154.64187622070312 234.56332397460938 154.48333740234375 234.89797973632812 154.80038452148438 234.89797973632812 155.9100341796875 235.23263549804688 157.3367156982422 235.23263549804688 166.21385192871094 233.89401245117188 175.4080352783203 232.55538940429688 185.71185302734375 231.88607788085938 196.80828857421875 229.87820434570312 207.1121063232422 227.87020874023438 216.6233367919922 226.19692993164062 227.56121826171875 224.52371215820312 237.38949584960938 223.51974487304688 247.5347900390625 222.85043334960938 256.2533874511719 221.84646606445312 264.1794128417969 221.51181030273438 271.47137451171875 221.17715454101562 276.2269592285156 221.51181030273438 278.9218444824219 222.51577758789062 280.19000244140625 223.51974487304688 281.4581298828125 224.85836791992188 282.4092712402344 226.53164672851562 283.2018737792969 228.53952026367188 284.1529846191406 231.21676635742188 284.3115234375 233.55935668945312 284.47003173828125 236.57125854492188 284.3115234375 239.91781616210938 283.5189208984375 243.93368530273438 282.88482666015625 248.61880493164062 282.2507629394531 254.30789184570312 281.7751770019531 259.3277282714844 281.14111328125 264.3475646972656 280.19000244140625 269.3673400878906 279.555908203125 273.7178649902344 279.555908203125 278.0683898925781 278.7633056640625 282.4189147949219 278.4462585449219 287.1039733886719 278.12921142578125 291.4545593261719 277.4951171875 296.1397399902344 277.1781005859375 300.4901428222656 277.0195617675781 304.5059509277344 276.7025451660156 308.8565368652344 276.7025451660156 312.5376892089844 276.54400634765625 315.5495910644531 276.385498046875 319.5655212402344 276.385498046875 323.5813293457031 276.385498046875 327.5971374511719 276.385498046875 331.2784118652344 276.54400634765625 334.6249084472656 277.1781005859375 338.3061218261719 277.970703125 340.6486511230469 280.66552734375 343.3258972167969 284.9455871582031 345.6684265136719 288.7500915527344 347.0071105957031 293.6642150878906 348.3457336425781 299.52947998046875 348.6804504394531 307.29693603515625 348.6804504394531 315.6985168457031 349.0149841308594 323.7830810546875 349.0149841308594 331.2335205078125 349.3496398925781 337.5743408203125 348.6804504394531 342.0129089355469 349.0149841308594 345.65887451171875 348.3457336425781 347.878173828125 347.6763610839844 348.5122375488281 347.0071105957031 349.7803955078125 346.3377990722656 350.8900451660156 346.0030822753906 352.3167419433594 344.6645202636719 353.4263610839844 342.9913024902344 354.2189636230469 339.9794006347656 354.5360107421875 337.3020935058594 355.0115966796875 335.6288146972656 355.17010498046875 333.6209411621094 355.0115966796875 331.9476623535156 354.0604553222656 323.9159240722656 352.158203125 314.8803405761719 351.048583984375 310.5297546386719 351.048583984375 310.5297546386719"
style="fill:none;stroke:black;stroke-width:10" />
</svg>