<svg version="1.0" xmlns="http://www.w3.org/2000/svg" height="300" width="400">
<rect width="400" height="300" fill="none" stroke="blue" stroke-width="5"/>
<path d="M105 142.0333251953125 C107 142.0333251953125 109 142.0333251953125 111 142.0333251953125 113 142.0333251953125 114 141.0333251953125 116 141.0333251953125 118 141.0333251953125 120 141.0333251953125 122 141.0333251953125 124 141.0333251953125 126 141.0333251953125 128 141.0333251953125 130 141.0333251953125 132 141.0333251953125 134 141.0333251953125 136 141.0333251953125 138 141.0333251953125 140 141.0333251953125 142 141.0333251953125 144 141.0333251953125 146 141.0333251953125 149 141.0333251953125 151 141.0333251953125 155 141.0333251953125 157 141.0333251953125 159 141.0333251953125 162 141.0333251953125 165 142.0333251953125 168 142.0333251953125 173 142.0333251953125 177 142.0333251953125 182 142.0333251953125 185 142.0333251953125 187 142.0333251953125 189 142.0333251953125 192 142.0333251953125 196 142.0333251953125 200 143.0333251953125 203 143.0333251953125 206 143.0333251953125 208 143.0333251953125 210 143.0333251953125 212 143.0333251953125 214 143.0333251953125 216 143.0333251953125 219 143.0333251953125 223 143.0333251953125 226 143.0333251953125 229 143.0333251953125 231 143.0333251953125 233 143.0333251953125 235 143.0333251953125 237 143.0333251953125 240 143.0333251953125 243 143.0333251953125 246 143.0333251953125 248 143.0333251953125 250 143.0333251953125 252 143.0333251953125 254 143.0333251953125 256 142.0333251953125 258 142.0333251953125 260 142.0333251953125Z"
style="fill:none;stroke:black;stroke-width:10" />
</svg>