<svg version="1.0" xmlns="http://www.w3.org/2000/svg" height="450" width="600">
<rect width="600" height="450" fill="none" stroke="black" stroke-width="5"/>
<path d="M140.85060119628906 126.13540649414062 C140.85060119628906 126.13540649414062 140.85060119628906 125.46609497070312 140.85060119628906 125.13143920898438 141.00912475585938 124.79678344726562 141.16763305664062 124.46218872070312 142.59432983398438 124.12753295898438 149.56922912597656 123.12350463867188 157.17819213867188 121.45028686523438 167.32350158691406 119.77700805664062 182.85848999023438 117.76907348632812 201.2468719482422 115.42648315429688 224.23228454589844 112.41464233398438 251.65631103515625 109.06802368164062 280.8240661621094 105.38693237304688 304.443603515625 103.37893676757812 327.7460632324219 101.03640747070312 345.9759216308594 100.36703491210938 363.0960998535156 99.36312866210938 374.1925354003906 98.69381713867188 379.7407531738281 98.35916137695312 382.1185302734375 99.69772338867188 383.8622741699219 102.37503051757812 383.8622741699219 102.37503051757812"
style="fill:none;stroke:black;stroke-width:10" />
<path d="M254.9852294921875 189.71969604492188 C254.9852294921875 189.71969604492188 254.668212890625 189.38504028320312 254.35116577148438 188.71572875976562 254.03411865234375 188.38107299804688 253.8756103515625 188.04641723632812 254.82672119140625 187.71176147460938 256.41192626953125 187.04244995117188 265.2890625 186.03848266601562 274.95880126953125 185.70382690429688 287.1648864746094 185.70382690429688 299.52947998046875 184.69985961914062 311.25994873046875 184.03054809570312 321.4052429199219 183.69595336914062 328.69720458984375 184.36520385742188 334.4039306640625 185.36923217773438 338.52545166015625 186.70779418945312 341.2203063964844 188.38107299804688 343.1225280761719 190.38900756835938 344.5492248535156 193.40084838867188 345.3418273925781 195.74343872070312 345.5003662109375 199.08999633789062 345.8173828125 203.44052124023438 345.9759216308594 209.46426391601562 345.0247802734375 216.15731811523438 342.96405029296875 224.52371215820312 340.7447509765625 233.55935668945312 338.8424987792969 244.26828002929688 336.78173828125 256.6504821777344 335.196533203125 266.0207824707031 333.45281982421875 273.7178649902344 331.7090759277344 279.4070129394531 329.80682373046875 284.0920715332031 327.90460205078125 288.7772521972656 324.73419189453125 295.1357116699219 322.990478515625 301.1594543457031 321.56378173828125 305.8446960449219 319.820068359375 309.8605041503906 317.7593078613281 312.8724060058594 316.0155944824219 315.8842468261719 314.43035888671875 317.5575256347656 314.11334228515625 318.2268371582031 313.63775634765625 318.5614929199219 312.8451843261719 318.5614929199219 312.2110900878906 318.2268371582031 310.6258850097656 317.2228698730469 306.8213806152344 314.5456848144531 301.7487487792969 310.1951599121094 297.1516418457031 301.1594543457031 297.1516418457031 301.1594543457031"
style="fill:none;stroke:black;stroke-width:10" />
<path d="M258.6312255859375 116.09579467773438 C258.6312255859375 116.09579467773438 258.6312255859375 116.76510620117188 258.9482727050781 117.76907348632812 259.1067810058594 118.10372924804688 259.2652893066406 118.43832397460938 259.4237976074219 118.43832397460938 259.58233642578125 119.10769653320312 259.58233642578125 119.77700805664062 259.58233642578125 120.78091430664062 258.9482727050781 124.46218872070312 258.4726867675781 129.81661987304688 257.8386535644531 137.51370239257812 257.0460205078125 146.88394165039062 256.0948791503906 155.91958618164062 254.82672119140625 167.63247680664062 253.40005493164062 181.68795776367188 251.97335815429688 195.74343872070312 248.802978515625 216.82662963867188 238.49911499023438 251.29598999023438 219.6352081298828 297.4782409667969 184.44369506835938 353.3656311035156 184.44369506835938 353.3656311035156"
style="fill:none;stroke:black;stroke-width:10" />
</svg>