<svg version="1.0" xmlns="http://www.w3.org/2000/svg" height="450" width="600">
<rect width="600" height="450" fill="none" stroke="black" stroke-width="5"/>
<path d="M166.05532836914062 210.46823120117188 C166.05532836914062 210.46823120117188 166.84793090820312 209.79891967773438 169.22573852539062 209.12960815429688 180.32215881347656 208.12564086914062 197.75941467285156 205.44845581054688 216.3062744140625 203.10586547851562 238.65765380859375 199.08999633789062 266.7157897949219 195.40884399414062 292.237548828125 191.05825805664062 315.5400085449219 187.71176147460938 335.03802490234375 185.03451538085938 351.6826477050781 184.03054809570312 364.20574951171875 183.02664184570312 367.2176513671875 183.69595336914062 367.2176513671875 183.69595336914062"
style="fill:none;stroke:black;stroke-width:10" />
<path d="M257.3630676269531 131.15524291992188 C257.3630676269531 131.15524291992188 257.52154541015625 131.15524291992188 257.8386535644531 131.15524291992188 257.68011474609375 131.82449340820312 257.52154541015625 133.16317749023438 257.20452880859375 138.18301391601562 255.93637084960938 147.21859741210938 254.668212890625 156.92361450195312 253.40005493164062 166.96322631835938 251.497802734375 176.66818237304688 249.75405883789062 186.03848266601562 248.802978515625 194.40481567382812 247.6933135986328 203.77517700195312 246.26663208007812 215.48806762695312 245.3155059814453 227.53561401367188 243.25474548339844 239.24850463867188 242.6206512451172 250.29208374023438 242.46212768554688 258.6584167480469 242.6206512451172 265.0168762207031 242.6206512451172 270.7059631347656 243.09622192382812 275.7257995605469 243.88880920410156 279.7416687011719 245.94960021972656 284.4267272949219 248.16888427734375 288.4426574707031 251.33926391601562 293.1278381347656 256.0948791503906 297.1436462402344 263.0697937011719 300.4901428222656 272.58099365234375 302.8327941894531 283.9944763183594 304.5059509277344 296.9931335449219 304.8407287597656 312.3695983886719 305.1753234863281 328.2216491699219 305.1753234863281 344.2322082519531 305.1753234863281 352.9508056640625 305.5099792480469 352.9508056640625 305.5099792480469"
style="fill:none;stroke:black;stroke-width:10" />
</svg>