<svg version="1.0" xmlns="http://www.w3.org/2000/svg" height="450" width="600">
<rect width="600" height="450" fill="none" stroke="black" stroke-width="5"/>
<path d="M367 158 C367 158 367 158 366 157 366 157 365 157 358 156 349 156 338 157 325 157 312 158 297 159 281 160 266 161 252 162 240 162 230 162 225 162 221 163 220 163 220 163 219 164 219 164"
style="fill:none;stroke:black;stroke-width:10" />
<path d="M434 303 C434 303 435 303 435 303 435 303 434 303 425 303 414 303 397 302 378 301 352 301 325 302 300 303 275 305 250 308 227 309 205 310 190 310 180 309 175 309 172 309 170 309 169 309 168 309 168 310 170 310 170 310"
style="fill:none;stroke:black;stroke-width:10" />
</svg>