<svg version="1.0" xmlns="http://www.w3.org/2000/svg" height="450" width="600">
<rect width="600" height="450" fill="none" stroke="black" stroke-width="5"/>
<path d="M250.22964477539062 61.547149658203125 C250.22964477539062 61.547149658203125 250.7052001953125 60.208648681640625 250.7052001953125 58.869964599609375 250.86370849609375 58.535369873046875 251.02224731445312 58.200653076171875 251.33926391601562 58.200653076171875 251.1807861328125 58.869964599609375 250.7052001953125 61.212554931640625 250.22964477539062 65.56307983398438 249.75405883789062 69.91354370117188 248.96148681640625 76.60665893554688 248.48590087890625 85.64224243164062 248.96148681640625 97.02053833007812 249.91259765625 106.39083862304688 250.54666137695312 113.08389282226562 251.1807861328125 116.76510620117188 251.65631103515625 119.10769653320312 251.65631103515625 120.44631958007812 251.65631103515625 121.11563110351562 251.33926391601562 123.12350463867188 251.33926391601562 123.12350463867188"
style="fill:none;stroke:black;stroke-width:10" />
<path d="M101.85459899902344 156.92361450195312 C101.85459899902344 156.92361450195312 101.6960678100586 155.91958618164062 102.48867797851562 155.25027465820312 103.75685119628906 154.24636840820312 107.08577728271484 152.23843383789062 109.93914031982422 150.23049926757812 111.68285369873047 149.22653198242188 114.21918487548828 148.55722045898438 117.07255554199219 147.88796997070312 121.03556823730469 147.21859741210938 125.63264465332031 146.21469116210938 133.71719360351562 144.54141235351562 146.87437438964844 141.52951049804688 161.61676025390625 137.84829711914062 177.31028747558594 135.84042358398438 194.27195739746094 132.82852172851562 210.59954833984375 130.15121459960938 226.92713928222656 128.14340209960938 241.5110321044922 126.47012329101562 254.668212890625 125.13143920898438 270.2032165527344 124.79678344726562 285.4211730957031 123.45822143554688 304.443603515625 122.78890991210938 324.41717529296875 122.78890991210938 345.5003662109375 122.11959838867188 364.68133544921875 121.45028686523438 382.1185302734375 120.11160278320312 397.8121032714844 118.43832397460938 408.5914306640625 117.09982299804688 414.7737121582031 117.09982299804688 417.7856140136719 118.43832397460938 417.7856140136719 118.43832397460938"
style="fill:none;stroke:black;stroke-width:10" />
<path d="M210.59954833984375 197.75137329101562 C210.59954833984375 197.75137329101562 209.96546936035156 197.08212280273438 209.64842224121094 196.74740600585938 209.1728515625 196.41275024414062 208.85585021972656 196.74740600585938 208.2217559814453 197.41671752929688 207.58766174316406 198.08602905273438 201.56390380859375 205.44845581054688 191.89413452148438 217.49600219726562 180.1636505126953 231.88607788085938 162.09231567382812 251.29598999023438 138.94834899902344 273.0485534667969 114.69474792480469 290.7851867675781 97.89159393310547 301.1594543457031 97.89159393310547 301.1594543457031"
style="fill:none;stroke:black;stroke-width:10" />
<path d="M337.4158020019531 200.76327514648438 C337.4158020019531 200.76327514648438 337.5743408203125 201.09793090820312 338.20843505859375 201.76724243164062 338.6839599609375 202.10189819335938 339.6351013183594 203.44052124023438 344.3907165527344 210.46823120117188 350.2559509277344 221.84646606445312 358.34051513671875 236.57125854492188 368.16876220703125 258.6584167480469 380.8503723144531 286.7693786621094 395.11724853515625 315.5495910644531 415.5663757324219 352.3615417480469 415.5663757324219 352.3615417480469"
style="fill:none;stroke:black;stroke-width:10" />
</svg>