<svg version="1.0" xmlns="http://www.w3.org/2000/svg" height="450" width="600">
<rect width="600" height="450" fill="none" stroke="black" stroke-width="5"/>
<path d="M367.6932067871094 143.43331909179688 C367.6932067871094 143.43331909179688 367.37615966796875 143.09866333007812 365.9494934082031 142.76400756835938 358.4990234375 142.09475708007812 344.707763671875 140.42141723632812 330.44091796875 139.75216674804688 315.5400085449219 139.41744995117188 301.43170166015625 139.41744995117188 285.73822021484375 139.75216674804688 271.1543273925781 139.75216674804688 257.20452880859375 139.41744995117188 244.68141174316406 140.42141723632812 234.5361328125 140.75607299804688 226.92713928222656 140.75607299804688 221.37893676757812 141.09072875976562 216.7818603515625 140.75607299804688 213.1358642578125 140.75607299804688 210.12400817871094 141.42544555664062 208.2217559814453 142.09475708007812 208.2217559814453 142.09475708007812"
style="fill:none;stroke:black;stroke-width:10" />
<path d="M358.65753173828125 244.49887084960938 C358.65753173828125 244.49887084960938 360.8768310546875 242.82559204101562 362.1449890136719 242.15628051757812 362.9375915527344 241.48696899414062 363.5716552734375 241.15231323242188 363.7301940917969 240.81765747070312 362.9375915527344 240.14834594726562 361.03533935546875 240.14834594726562 349.62188720703125 240.48300170898438 335.6720886230469 240.81765747070312 319.820068359375 241.48696899414062 304.60211181640625 243.16024780273438 288.43304443359375 243.49484252929688 273.5321350097656 244.49887084960938 259.7408447265625 245.16812133789062 245.156982421875 245.16812133789062 232.63388061523438 245.50283813476562 223.5982208251953 245.83743286132812 216.94036865234375 246.50674438476562 213.1358642578125 246.84140014648438 210.91659545898438 247.17605590820312 206.9535675048828 247.17605590820312 201.0883331298828 246.17214965820312 201.0883331298828 246.17214965820312"
style="fill:none;stroke:black;stroke-width:10" />
<path d="M415.2492980957031 329.8356018066406 C415.2492980957031 329.8356018066406 414.7737121582031 330.1701965332031 413.8226318359375 330.1701965332031 412.5544738769531 330.1701965332031 407.0062255859375 330.8395690917969 394.8001708984375 330.5048522949219 381.64300537109375 332.1781921386719 364.0472412109375 334.8554992675781 343.7566223144531 336.1940002441406 321.4052429199219 338.2020568847656 301.7487487792969 337.5326843261719 280.8240661621094 337.1980285644531 261.8016357421875 335.8594055175781 239.60877990722656 335.8594055175781 219.6352081298828 334.8554992675781 200.29571533203125 336.8633117675781 181.90736389160156 336.5286560058594 165.10421752929688 337.5326843261719 148.30105590820312 338.5366516113281 131.81494140625 338.8713073730469 131.81494140625 338.8713073730469"
style="fill:none;stroke:black;stroke-width:10" />
</svg>