<svg version="1.0" xmlns="http://www.w3.org/2000/svg" height="450" width="600">
<rect width="600" height="450" fill="none" stroke="black" stroke-width="5"/>
<path d="M316.1741027832031 90.66213989257812 C316.1741027832031 90.66213989257812 316.49114990234375 90.32742309570312 316.3326110839844 90.32742309570312 316.0155944824219 90.32742309570312 315.6985168457031 90.32742309570312 314.7474060058594 89.99276733398438 313.479248046875 90.66213989257812 312.3695983886719 91.33145141601562 307.29693603515625 94.67794799804688 303.9680480957031 97.02053833007812 301.1146545410156 100.36703491210938 298.102783203125 103.37893676757812 294.6153564453125 107.06021118164062 291.2864074707031 110.07205200195312 286.84783935546875 113.41854858398438 282.0922546386719 115.76113891601562 274.4832763671875 119.10769653320312 266.5572509765625 122.78890991210938 259.1067810058594 125.46609497070312 250.54666137695312 130.15121459960938 235.6457977294922 137.51370239257812 229.9390411376953 139.85629272460938 217.09889221191406 145.54537963867188 208.2217559814453 149.89584350585938 208.2217559814453 149.89584350585938"
style="fill:none;stroke:black;stroke-width:10" />
<path d="M174.13987731933594 210.46823120117188 C174.13987731933594 210.46823120117188 173.18875122070312 209.79891967773438 172.55467224121094 209.46426391601562 172.87171936035156 209.46426391601562 174.2983856201172 209.46426391601562 179.68807983398438 209.12960815429688 188.5652313232422 209.46426391601562 200.13723754882812 209.12960815429688 211.3921356201172 209.46426391601562 225.50047302246094 209.46426391601562 241.986572265625 208.46029663085938 260.05792236328125 208.12564086914062 279.0803527832031 207.12173461914062 296.83465576171875 206.45242309570312 317.4422607421875 205.78311157226562 336.62322998046875 204.44442749023438 351.99969482421875 203.77517700195312 361.1938781738281 203.77517700195312 366.5835876464844 204.10983276367188 366.5835876464844 204.10983276367188"
style="fill:none;stroke:black;stroke-width:10" />
<path d="M268.45947265625 127.80868530273438 C268.45947265625 127.80868530273438 268.30096435546875 127.80868530273438 267.8254089355469 128.14340209960938 267.50836181640625 128.14340209960938 267.3498229980469 128.14340209960938 267.1913146972656 127.80868530273438 266.874267578125 127.80868530273438 266.7157897949219 128.14340209960938 266.7157897949219 128.81271362304688 266.7157897949219 133.16317749023438 266.7157897949219 140.52560424804688 267.3498229980469 150.23049926757812 268.45947265625 164.62063598632812 268.9350280761719 185.36923217773438 270.2032165527344 214.14944458007812 271.3128662109375 246.61087036132812 270.8372802734375 274.3871765136719 271.47137451171875 296.8089904785156 271.78839111328125 311.5337829589844 272.58099365234375 319.5655212402344 272.1054382324219 322.5773010253906 272.26397705078125 324.2505798339844 271.78839111328125 324.5852966308594 270.5202331542969 324.9199523925781 270.5202331542969 324.9199523925781"
style="fill:none;stroke:black;stroke-width:10" />
</svg>