<svg version="1.0" xmlns="http://www.w3.org/2000/svg" height="450" width="600">
<rect width="600" height="450" fill="none" stroke="black" stroke-width="5"/>
<path d="M133.87571716308594 142.09475708007812 C133.87571716308594 142.09475708007812 134.82684326171875 144.77194213867188 138.15576171875 158.49276733398438 140.85060119628906 172.54824829101562 143.7039794921875 188.27700805664062 146.87437438964844 205.67898559570312 151.3129425048828 223.41561889648438 155.9100341796875 242.49087524414062 158.92190551757812 263.5741271972656 163.04344177246094 286.9998474121094 165.89682006835938 303.7325134277344 166.6894073486328 310.4256286621094 167.16497802734375 311.7643127441406 167.16497802734375 311.7643127441406"
style="fill:none;stroke:black;stroke-width:10" />
<path d="M126.74229431152344 150.46102905273438 C126.74229431152344 150.46102905273438 126.90081787109375 150.12643432617188 127.69342041015625 149.45712280273438 129.27862548828125 148.78775024414062 136.570556640625 146.77987670898438 146.87437438964844 144.10263061523438 161.14120483398438 141.09072875976562 179.52957153320312 137.74423217773438 205.5269012451172 135.06698608398438 242.46212768554688 133.05905151367188 277.33660888671875 132.38973999023438 310.15032958984375 132.38973999023438 337.2572937011719 132.72445678710938 360.71832275390625 133.05905151367188 374.6680908203125 134.06295776367188 380.05780029296875 135.73623657226562 381.9600524902344 138.07882690429688 383.0696716308594 143.09866333007812 384.1793212890625 153.13833618164062 384.0207824707031 165.85513305664062 383.8622741699219 181.24929809570312 383.0696716308594 197.98190307617188 381.9600524902344 214.04531860351562 380.37481689453125 231.44735717773438 378.7896423339844 248.18002319335938 377.2044372558594 264.5780944824219 375.6192321777344 280.6415100097656 374.50958251953125 293.3583068847656 373.3999328613281 304.0672912597656 372.4488220214844 316.4494323730469 372.4488220214844 316.4494323730469"
style="fill:none;stroke:black;stroke-width:10" />
<path d="M247.3762664794922 153.47293090820312 C247.3762664794922 153.47293090820312 246.74221801757812 153.80764770507812 245.94960021972656 153.47293090820312 244.99847412109375 153.80764770507812 244.2058563232422 153.80764770507812 242.93768310546875 154.81155395507812 237.54798889160156 160.50064086914062 231.9998016357422 169.20162963867188 224.5493621826172 183.25711059570312 212.02622985839844 204.00570678710938 194.7475128173828 223.75027465820312 175.72508239746094 240.81765747070312 175.72508239746094 240.81765747070312"
style="fill:none;stroke:black;stroke-width:10" />
<path d="M276.7025451660156 148.78775024414062 C276.7025451660156 148.78775024414062 277.1781005859375 149.12246704101562 277.81219482421875 150.46102905273438 279.23883056640625 158.49276733398438 279.555908203125 164.85122680664062 279.23883056640625 170.87490844726562 279.3973693847656 177.23342895507812 279.555908203125 182.92251586914062 280.19000244140625 190.28488159179688 280.8240661621094 197.64730834960938 281.7751770019531 204.34030151367188 283.67742919921875 210.36416625976562 285.4211730957031 214.71463012695312 287.64044189453125 218.73049926757812 290.1767883300781 221.74234008789062 294.7738342285156 225.08889770507812 301.7487487792969 228.77011108398438 312.6866455078125 232.11666870117188 325.0512390136719 234.79385375976562 337.8913879394531 235.79782104492188 351.6826477050781 237.80575561523438 362.6205749511719 238.80972290039062 371.02215576171875 240.81765747070312 371.02215576171875 240.81765747070312"
style="fill:none;stroke:black;stroke-width:10" />
<path d="M162.56788635253906 315.1108703613281 C162.56788635253906 315.1108703613281 162.25083923339844 315.7801818847656 162.56788635253906 316.4494323730469 163.67752075195312 316.4494323730469 169.38426208496094 316.7840881347656 181.90736389160156 316.1147766113281 200.7712860107422 313.4375305175781 228.6708526611328 310.7603454589844 258.1556396484375 309.0870666503906 289.54266357421875 308.7524108886719 318.39337158203125 309.0870666503906 341.69586181640625 310.0909729003906 358.9745788574219 310.4256286621094 366.5835876464844 311.0950012207031 366.5835876464844 311.0950012207031"
style="fill:none;stroke:black;stroke-width:10" />
</svg>